<svg xmlns="http://www.w3.org/2000/svg" viewBox="0 0 64 64" fill="none">
  <rect width="64" height="64" rx="14" fill="#409EFF"/>
  <rect x="12" y="16" width="28" height="22" rx="3" stroke="#fff" stroke-width="2.2"/>
  <circle cx="20" cy="24" r="3.5" fill="#fff"/>
  <path d="M16 34l6-6 5 4 7-9 8 11H16z" fill="#fff" opacity=".9"/>
  <path d="M38 30c0-4 3-7 7-7 3.5 0 6.5 2.2 7.5 5.3.1.3.1.5.1.7 4.2.5 7.4 4 7.4 8.2 0 4.6-3.7 8.3-8.3 8.3H38" stroke="#E6F4FF" stroke-width="2.2" stroke-linecap="round"/>
  <path d="M44 38h8" stroke="#fff" stroke-width="2" stroke-linecap="round"/>
  <circle cx="48" cy="38" r="2" fill="#fff"/>
</svg>
